<svg xmlns="http://www.w3.org/2000/svg" xmlns:xlink="http://www.w3.org/1999/xlink" aria-hidden="true" style="position:absolute;width:0;height:0;overflow:hidden">
<svg xmlns="http://www.w3.org/2000/svg" width="16" height="16" viewBox="0 0 16 16" fill="none">
  <path d="M14.5411 0.156924H12.5364C11.9178 0.156924 11.4163 0.648347 11.4163 1.25459V3.21923C11.4163 3.82547 11.9178 4.31692 12.5364 4.31692H14.5411C15.1597 4.31692 15.6612 3.82547 15.6612 3.21923V1.25459C15.6612 0.648347 15.1597 0.156924 14.5411 0.156924Z" fill="#AE1332"/>
  <path d="M3.36519 11.52H1.20624C0.540049 11.52 0 12.0115 0 12.6177V14.5823C0 15.1886 0.540049 15.68 1.20624 15.68H3.36519C4.03138 15.68 4.57143 15.1886 4.57143 14.5823V12.6177C4.57143 12.0115 4.03138 11.52 3.36519 11.52Z" fill="#AE1332"/>
  <path d="M3.1248 5.79091H1.12007C0.501486 5.79091 0 6.28233 0 6.88857V8.85321C0 9.45945 0.501599 9.95091 1.12018 9.95091H3.1248C3.74341 9.95091 4.2449 9.45945 4.2449 8.85321V6.88857C4.2449 6.28233 3.74341 5.79091 3.1248 5.79091Z" fill="#AE1332"/>
  <path d="M8.88295 11.4891H6.87822C6.25964 11.4891 5.75815 11.9805 5.75815 12.5868L5.75804 14.5514C5.75804 15.1576 6.25975 15.6491 6.87833 15.6491H8.88295C9.50157 15.6491 10.0031 15.1576 10.0031 14.5514V12.5868C10.0031 11.9805 9.50157 11.4891 8.88295 11.4891Z" fill="#AE1332"/>
  <path d="M3.1248 0.0431361H1.12007C0.501486 0.0431361 0 0.534559 0 1.1408V3.10544C0 3.71168 0.501599 4.20314 1.12018 4.20314H3.1248C3.74341 4.20314 4.2449 3.71168 4.2449 3.10544V1.1408C4.2449 0.534559 3.74341 0.0431361 3.1248 0.0431361Z" fill="#AE1332"/>
  <path d="M9.03794 5.84874H7.03321C6.41463 5.84874 5.91314 6.34016 5.91314 6.9464V8.91104C5.91314 9.51728 6.41474 10.0087 7.03332 10.0087H9.03794C9.65655 10.0087 10.158 9.51728 10.158 8.91104V6.9464C10.158 6.34016 9.65655 5.84874 9.03794 5.84874Z" fill="#AE1332"/>
  <path d="M14.6667 11.4891H12.6619C12.0434 11.4891 11.5419 11.9805 11.5419 12.5868V14.5514C11.5419 15.1576 12.0435 15.6491 12.662 15.6491H14.6667C15.2853 15.6491 15.7868 15.1576 15.7868 14.5514V12.5868C15.7868 11.9805 15.2853 11.4891 14.6667 11.4891Z" fill="#AE1332"/>
  <path d="M8.7953 0.111854H6.79056C6.17198 0.111854 5.6705 0.603277 5.6705 1.20952V3.17416C5.6705 3.7804 6.1721 4.27185 6.79068 4.27185H8.7953C9.41391 4.27185 9.91539 3.78003 9.91539 3.17379V1.20952C9.91539 0.603277 9.41391 0.111854 8.7953 0.111854Z" fill="#AE1332"/>
  <path d="M14.5219 5.96291H12.5171C11.8985 5.96291 11.3971 6.45433 11.3971 7.06057V9.02521C11.3971 9.63145 11.8987 10.1229 12.5172 10.1229H14.5219C15.1405 10.1229 15.642 9.63145 15.642 9.02521V7.06057C15.642 6.45433 15.1405 5.96291 14.5219 5.96291Z" fill="#AE1332"/>
</svg>
<defs>
<symbol id="icon-logo" viewBox="0 0 32 32">
<path fill="#ae1332" style="fill: var(--color1, #ae1332)" d="M29.082 0.314h-4.009c-1.237 0-2.24 0.983-2.24 2.195v3.929c0 1.212 1.003 2.195 2.24 2.195h4.009c1.237 0 2.24-0.983 2.24-2.195v-3.929c0-1.212-1.003-2.195-2.24-2.195z"></path>
<path fill="#ae1332" style="fill: var(--color1, #ae1332)" d="M6.73 23.040h-4.318c-1.332 0-2.412 0.983-2.412 2.195v3.929c0 1.213 1.080 2.195 2.412 2.195h4.318c1.332 0 2.412-0.983 2.412-2.195v-3.929c0-1.212-1.080-2.195-2.412-2.195z"></path>
<path fill="#ae1332" style="fill: var(--color1, #ae1332)" d="M6.25 11.582h-4.009c-1.237 0-2.24 0.983-2.24 2.195v3.929c0 1.212 1.003 2.195 2.24 2.195h4.009c1.237 0 2.24-0.983 2.24-2.195v-3.929c0-1.212-1.003-2.195-2.24-2.195z"></path>
<path fill="#ae1332" style="fill: var(--color1, #ae1332)" d="M17.766 22.978h-4.009c-1.237 0-2.24 0.983-2.24 2.195l-0 3.929c0 1.212 1.003 2.195 2.241 2.195h4.009c1.237 0 2.24-0.983 2.24-2.195v-3.929c0-1.213-1.003-2.195-2.24-2.195z"></path>
<path fill="#ae1332" style="fill: var(--color1, #ae1332)" d="M6.25 0.086h-4.009c-1.237 0-2.24 0.983-2.24 2.195v3.929c0 1.212 1.003 2.195 2.24 2.195h4.009c1.237 0 2.24-0.983 2.24-2.195v-3.929c0-1.212-1.003-2.195-2.24-2.195z"></path>
<path fill="#ae1332" style="fill: var(--color1, #ae1332)" d="M18.076 11.697h-4.009c-1.237 0-2.24 0.983-2.24 2.195v3.929c0 1.212 1.003 2.195 2.24 2.195h4.009c1.237 0 2.24-0.983 2.24-2.195v-3.929c0-1.212-1.003-2.195-2.24-2.195z"></path>
<path fill="#ae1332" style="fill: var(--color1, #ae1332)" d="M29.333 22.978h-4.010c-1.237 0-2.24 0.983-2.24 2.195v3.929c0 1.212 1.003 2.195 2.24 2.195h4.009c1.237 0 2.24-0.983 2.24-2.195v-3.929c0-1.213-1.003-2.195-2.24-2.195z"></path>
<path fill="#ae1332" style="fill: var(--color1, #ae1332)" d="M17.591 0.224h-4.009c-1.237 0-2.24 0.983-2.24 2.195v3.929c0 1.212 1.003 2.195 2.24 2.195h4.009c1.237 0 2.24-0.984 2.24-2.196v-3.929c0-1.212-1.003-2.195-2.24-2.195z"></path>
<path fill="#ae1332" style="fill: var(--color1, #ae1332)" d="M29.044 11.926h-4.010c-1.237 0-2.24 0.983-2.24 2.195v3.929c0 1.212 1.003 2.195 2.24 2.195h4.009c1.237 0 2.24-0.983 2.24-2.195v-3.929c0-1.212-1.003-2.195-2.24-2.195z"></path>
</symbol>
<symbol id="arrow" viewBox="0 0 32 32">
<path d="M32 4.741l-4.741-4.741v23.704l-23.704-23.704-3.556 3.556 23.704 23.704h-23.704l4.741 4.741h27.259v-27.259z"></path>
</symbol>
<symbol id="icon-cart" viewBox="0 0 32 32">
<path fill="#ae1332" style="fill: var(--color1, #ae1332)" d="M25.333 9.333h-4v-1.333c0-1.415-0.562-2.771-1.562-3.771s-2.357-1.562-3.771-1.562c-1.414 0-2.771 0.562-3.771 1.562s-1.562 2.357-1.562 3.771v1.333h-4c-0.354 0-0.693 0.14-0.943 0.39s-0.391 0.589-0.391 0.943v14.667c0 1.061 0.421 2.078 1.172 2.828s1.768 1.172 2.828 1.172h13.333c1.061 0 2.078-0.422 2.828-1.172s1.172-1.768 1.172-2.828v-14.667c0-0.354-0.141-0.693-0.39-0.943s-0.589-0.39-0.943-0.39zM13.333 8c0-0.707 0.281-1.386 0.781-1.886s1.178-0.781 1.886-0.781c0.707 0 1.386 0.281 1.886 0.781s0.781 1.178 0.781 1.886v1.333h-5.333v-1.333zM24 25.333c0 0.354-0.14 0.693-0.39 0.943s-0.589 0.391-0.943 0.391h-13.333c-0.354 0-0.693-0.141-0.943-0.391s-0.391-0.589-0.391-0.943v-13.333h2.667v1.333c0 0.354 0.14 0.693 0.391 0.943s0.589 0.391 0.943 0.391c0.354 0 0.693-0.141 0.943-0.391s0.39-0.589 0.39-0.943v-1.333h5.333v1.333c0 0.354 0.14 0.693 0.39 0.943s0.589 0.391 0.943 0.391 0.693-0.141 0.943-0.391c0.25-0.25 0.39-0.589 0.39-0.943v-1.333h2.667v13.333z"></path>
</symbol>
<symbol id="facebook" viewBox="0 0 16 28">
<path d="M14.984 0.187v4.125h-2.453c-1.922 0-2.281 0.922-2.281 2.25v2.953h4.578l-0.609 4.625h-3.969v11.859h-4.781v-11.859h-3.984v-4.625h3.984v-3.406c0-3.953 2.422-6.109 5.953-6.109 1.687 0 3.141 0.125 3.563 0.187z"></path>
</symbol>
<symbol id="instagram" viewBox="0 0 32 32">
<path fill="#e4405f" style="fill: var(--color4, #e4405f)" d="M16 0c-4.347 0-4.889 0.020-6.596 0.096-1.704 0.080-2.864 0.348-3.884 0.744-1.052 0.408-1.945 0.956-2.835 1.845s-1.439 1.781-1.845 2.835c-0.396 1.020-0.665 2.18-0.744 3.884-0.080 1.707-0.096 2.249-0.096 6.596s0.020 4.889 0.096 6.596c0.080 1.703 0.348 2.864 0.744 3.884 0.408 1.051 0.956 1.945 1.845 2.835 0.889 0.888 1.781 1.439 2.835 1.845 1.021 0.395 2.181 0.665 3.884 0.744 1.707 0.080 2.249 0.096 6.596 0.096s4.889-0.020 6.596-0.096c1.703-0.080 2.864-0.349 3.884-0.744 1.051-0.408 1.945-0.957 2.835-1.845 0.888-0.889 1.439-1.78 1.845-2.835 0.395-1.020 0.665-2.181 0.744-3.884 0.080-1.707 0.096-2.249 0.096-6.596s-0.020-4.889-0.096-6.596c-0.080-1.703-0.349-2.865-0.744-3.884-0.408-1.052-0.957-1.945-1.845-2.835-0.889-0.889-1.78-1.439-2.835-1.845-1.020-0.396-2.181-0.665-3.884-0.744-1.707-0.080-2.249-0.096-6.596-0.096zM16 2.88c4.271 0 4.78 0.021 6.467 0.095 1.56 0.073 2.407 0.332 2.969 0.553 0.749 0.289 1.28 0.636 1.843 1.195 0.559 0.56 0.905 1.092 1.195 1.841 0.219 0.563 0.48 1.409 0.551 2.969 0.076 1.688 0.093 2.195 0.093 6.467s-0.020 4.78-0.099 6.467c-0.081 1.56-0.341 2.407-0.561 2.969-0.299 0.749-0.639 1.28-1.199 1.843-0.559 0.559-1.099 0.905-1.84 1.195-0.56 0.219-1.42 0.48-2.98 0.551-1.699 0.076-2.199 0.093-6.479 0.093-4.281 0-4.781-0.020-6.479-0.099-1.561-0.081-2.421-0.341-2.981-0.561-0.759-0.299-1.28-0.639-1.839-1.199-0.561-0.559-0.92-1.099-1.2-1.84-0.22-0.56-0.479-1.42-0.56-2.98-0.060-1.68-0.081-2.199-0.081-6.459 0-4.261 0.021-4.781 0.081-6.481 0.081-1.56 0.34-2.419 0.56-2.979 0.28-0.76 0.639-1.28 1.2-1.841 0.559-0.559 1.080-0.919 1.839-1.197 0.56-0.221 1.401-0.481 2.961-0.561 1.7-0.060 2.2-0.080 6.479-0.080zM16 7.784c-4.54 0-8.216 3.68-8.216 8.216 0 4.54 3.68 8.216 8.216 8.216 4.54 0 8.216-3.68 8.216-8.216 0-4.54-3.68-8.216-8.216-8.216zM16 21.333c-2.947 0-5.333-2.387-5.333-5.333s2.387-5.333 5.333-5.333 5.333 2.387 5.333 5.333-2.387 5.333-5.333 5.333zM26.461 7.46c0 1.060-0.861 1.92-1.92 1.92-1.060 0-1.92-0.861-1.92-1.92s0.861-1.919 1.92-1.919c1.057-0.001 1.92 0.86 1.92 1.919z"></path>
</symbol>
<symbol id="youtube" viewBox="0 0 28 28">
<path d="M11.109 17.625l7.562-3.906-7.562-3.953v7.859zM14 4.156c5.891 0 9.797 0.281 9.797 0.281 0.547 0.063 1.75 0.063 2.812 1.188 0 0 0.859 0.844 1.109 2.781 0.297 2.266 0.281 4.531 0.281 4.531v2.125s0.016 2.266-0.281 4.531c-0.25 1.922-1.109 2.781-1.109 2.781-1.062 1.109-2.266 1.109-2.812 1.172 0 0-3.906 0.297-9.797 0.297v0c-7.281-0.063-9.516-0.281-9.516-0.281-0.625-0.109-2.031-0.078-3.094-1.188 0 0-0.859-0.859-1.109-2.781-0.297-2.266-0.281-4.531-0.281-4.531v-2.125s-0.016-2.266 0.281-4.531c0.25-1.937 1.109-2.781 1.109-2.781 1.062-1.125 2.266-1.125 2.812-1.188 0 0 3.906-0.281 9.797-0.281v0z"></path>
</symbol>
<symbol id="icon-oval" viewBox="0 0 85 32">
<path d="M42.723 22.468c18.331 0 33.192-2.896 33.192-6.468s-14.86-6.468-33.191-6.468c-18.331 0-33.191 2.896-33.191 6.468s14.86 6.468 33.191 6.468z"></path>
</symbol>
<symbol id="close" viewBox="0 0 18 18">
      <path d="M15 4.10786L13.8921 3L9.5 7.39214L5.10786 3L4 4.10786L8.39214 8.5L4 12.8921L5.10786 14L9.5 9.60786L13.8921 14L15 12.8921L10.6079 8.5L15 4.10786Z"/>
  </symbol>
  <symbol id="checkboxsvg" viewBox="0 0 32 32">
<path fill="none" stroke="#fff" style="stroke: var(--color1, #fff)" stroke-linejoin="miter" stroke-linecap="butt" stroke-miterlimit="4" stroke-width="2.4" d="M6.4 1.2h19.2c2.872 0 5.2 2.328 5.2 5.2v19.2c0 2.872-2.328 5.2-5.2 5.2h-19.2c-2.872 0-5.2-2.328-5.2-5.2v-19.2c0-2.872 2.328-5.2 5.2-5.2z"></path>
</symbol>
  <symbol id="checkboxsvg" viewBox="0 0 32 32">
  <path fill="none" stroke="#fff" style="stroke: var(--color1, #fff)" stroke-linejoin="miter" stroke-linecap="butt"
      stroke-miterlimit="4" stroke-width="2.4"
      d="M6.4 1.2h19.2c2.872 0 5.2 2.328 5.2 5.2v19.2c0 2.872-2.328 5.2-5.2 5.2h-19.2c-2.872 0-5.2-2.328-5.2-5.2v-19.2c0-2.872 2.328-5.2 5.2-5.2z">
  </path>
  </symbol>
  <symbol id="menu-left" viewBox="0 0 32 32">
<path fill="#ae1332" style="fill: var(--color1, #ae1332)" d="M2.667 7.993c0-0.733 0.595-1.327 1.327-1.327h10.68c0.352 0 0.689 0.14 0.938 0.389s0.389 0.586 0.389 0.938c0 0.352-0.14 0.689-0.389 0.938s-0.586 0.389-0.938 0.389h-10.68c-0.352 0-0.689-0.14-0.938-0.389s-0.389-0.586-0.389-0.938zM2.667 16c0-0.733 0.595-1.327 1.327-1.327h24.013c0.352 0 0.689 0.14 0.938 0.389s0.389 0.586 0.389 0.938c0 0.352-0.14 0.689-0.389 0.938s-0.586 0.389-0.938 0.389h-24.013c-0.352 0-0.689-0.14-0.938-0.389s-0.389-0.586-0.389-0.938zM3.993 22.68c-0.352 0-0.689 0.14-0.938 0.389s-0.389 0.586-0.389 0.938c0 0.352 0.14 0.689 0.389 0.938s0.586 0.389 0.938 0.389h16.013c0.352 0 0.689-0.14 0.938-0.389s0.389-0.586 0.389-0.938c0-0.352-0.14-0.689-0.389-0.938s-0.586-0.389-0.938-0.389h-16.013z"></path>
</symbol>
</defs>
</svg>